<?xml version="1.0" encoding="iso-8859-1"?>
<!-- Generator: Adobe Illustrator 19.0.0, SVG Export Plug-In . SVG Version: 6.00 Build 0)  -->
<svg version="1.1" id="Capa_1" xmlns="http://www.w3.org/2000/svg" xmlns:xlink="http://www.w3.org/1999/xlink" x="0px" y="0px"
	 viewBox="0 0 477.614 477.614" style="enable-background:new 0 0 477.614 477.614;" xml:space="preserve">
<g>
	<g>
		<path d="M251.385,5.277c-6.823-6.947-17.985-7.047-24.931-0.225c-0.076,0.074-0.151,0.149-0.225,0.225
			C219.778,12.325,68.14,179.254,68.14,306.947c0,113.254,57.412,170.667,170.667,170.667s170.667-57.412,170.667-170.667
			C409.474,179.254,257.836,12.325,251.385,5.277z M238.807,443.48c-95.693,0-136.533-40.841-136.533-136.533
			c0-94.447,100.574-221.679,136.533-264.158C274.766,85.268,375.34,212.5,375.34,306.947
			C375.34,402.64,334.5,443.48,238.807,443.48z"/>
	</g>
</g>
<g>
</g>
<g>
</g>
<g>
</g>
<g>
</g>
<g>
</g>
<g>
</g>
<g>
</g>
<g>
</g>
<g>
</g>
<g>
</g>
<g>
</g>
<g>
</g>
<g>
</g>
<g>
</g>
<g>
</g>
</svg>
